<svg id="_0563_money_transfer" xmlns="http://www.w3.org/2000/svg" xmlns:xlink="http://www.w3.org/1999/xlink" viewBox="0 0 500 500" data-imageid="money-transfer-3-18" imageName="Money Transfer 3" class="illustrations_image" style="width: 186px;"><defs><style>.cls-1_money-transfer-3-18{fill:url(#linear-gradient);}.cls-1_money-transfer-3-18,.cls-2_money-transfer-3-18,.cls-3_money-transfer-3-18,.cls-4_money-transfer-3-18,.cls-5_money-transfer-3-18,.cls-6_money-transfer-3-18,.cls-7_money-transfer-3-18{stroke-width:0px;}.cls-2_money-transfer-3-18{isolation:isolate;opacity:.18;}.cls-2_money-transfer-3-18,.cls-7_money-transfer-3-18{fill:#68e1fd;}.cls-3_money-transfer-3-18{fill:#231f20;opacity:.14;}.cls-4_money-transfer-3-18{fill:#473f47;}.cls-5_money-transfer-3-18{fill:#fff;}.cls-6_money-transfer-3-18{fill:#ffb4a3;}</style><linearGradient id="linear-gradient-money-transfer-3-18" x1="-574.41" y1="-752.9" x2="-578.07" y2="-721.9" gradientTransform="translate(823.29 1014.37)" gradientUnits="userSpaceOnUse"><stop offset="0" stop-color="#231f20"/><stop offset=".08" stop-color="#231f20" stop-opacity=".69"/><stop offset=".21" stop-color="#231f20" stop-opacity=".32"/><stop offset="1" stop-color="#231f20" stop-opacity="0"/></linearGradient></defs><path id="background_money-transfer-3-18" class="cls-2_money-transfer-3-18 targetColor" d="M233.37,59.35c-8.78.14-17.53,1.13-26.13,2.94-32.25,7.17-58.9,29.24-83.05,51.77-20.2,18.84-40.08,39.21-50.59,64.76-10.05,24.51-10.69,52.27-22.32,76.15-7.36,15.14-18.7,27.88-27.72,42.11-15.22,24.05-23.02,55.89-9.51,81.01,7.69,14.28,21.17,24.45,34.63,33.5,34.45,23.19,72.47,42.58,113.55,48.63,15.68,2.31,31.58,2.67,47.42,3.43,13.67.68,27.49,1.7,40.93-.85,33.62-6.39,59.09-33.58,90.25-47.72,22.16-10.06,46.76-13.27,70.3-19.3,23.54-6.04,47.61-15.84,62.41-35.19,13.21-17.27,16.91-39.22,19.21-60.29,2.22-20.29-10.21-39.29-17.81-57.95-16.43-40.33-33.6-81.14-63.59-113.55-30.67-32.96-70.89-55.5-115.01-64.47-16.5-3.14-33.25-4.81-50.04-4.98-4.3-.08-8.62-.11-12.93.01Z" style="fill: rgb(104, 225, 253);"/><g id="_character_money-transfer-3-18"><path class="cls-6_money-transfer-3-18" d="M209.47,229.17c-.22-1.39-1.29-2.5-2.67-2.75-1.36-.23-2.75.16-3.79,1.07-.66.54-1.12,1.27-1.34,2.1-.15.86-.09,1.74.15,2.58.23,1.19.68,2.33,1.34,3.35,1.34,1.9,4.49,2.56,5.45,0,.11-.83.14-1.66.09-2.5.15-1.31.91-2.5.77-3.85Z"/><path class="cls-7_money-transfer-3-18 targetColor" d="M285.25,351.35c0,21.77-17.64,39.41-39.41,39.41s-39.41-17.64-39.41-39.41c-.02-1.01.02-2.02.11-3.02,1.7-21.69,20.66-37.9,42.35-36.2,20.48,1.6,36.29,18.68,36.32,39.22h.04Z" style="fill: rgb(104, 225, 253);"/><path class="cls-3_money-transfer-3-18" d="M229.3,369.24c-1.34,5.69.29,11.77-.88,17.43-9.1-4.5-16.11-12.33-19.6-21.87-.18-1.96-.14-3.93.15-5.88.43-2.08.43-4.22,0-6.29-.56-1.56-1.39-3.02-2.44-4.3.89-11.66,6.92-22.32,16.46-29.08.05.26.05.54,0,.8l-1.68,7.49c.33,2.21.33,4.47,0,6.68-.37,2.23-1.71,4.19-3.66,5.34-.72.31-1.43.65-2.11,1.04-.65.53-1.19,1.19-1.6,1.92-1.08,1.52-1.9,3.22-2.4,5.02-.49,1.83-.02,3.79,1.26,5.2l10.98-2.14c1.12-.41,2.37-.23,3.33.49.95,1.03.36,2.67.56,4.07.27,1.76,1.84,3.05,2.58,4.69,1.35,2.98-.2,6.27-.92,9.36Z"/><path class="cls-3_money-transfer-3-18" d="M214.72,331.1c.51,1.09,1.32,2.02,2.34,2.67,4.61,3.46,10.18,5.41,15.94,5.58-1.89.31-3.66,1.15-5.09,2.43-1.34,1.34-1.62,4.01-.08,5.08.54.36,1.16.6,1.8.69,2.94.57,5.97.33,8.78-.71,1.62-.83,3.37-1.35,5.17-1.55,1.45.12,2.87.52,4.17,1.19,1.85.96,3.94,1.35,6.01,1.11,2.03-.41,3.87-2.36,3.45-4.38-.11-.48-.32-1-.08-1.42.19-.25.45-.44.75-.55l18.7-8.28c1.19-.53,2.54-1.34,2.67-2.58s-1.18-2.38-2.39-3.01c-6.43-3.35-13.92-3.78-21.16-4.14l-12.85-.63c-6.23-.48-12.48-.43-18.7.13-2.15.25-5.96.28-7.6,1.88-1.58,1.75-2.25,4.15-1.82,6.47Z"/><path class="cls-3_money-transfer-3-18" d="M285.25,351.35c.01,12.07-5.52,23.47-15,30.94-.53-.35-.98-.81-1.34-1.34-1.24-1.83-.77-4.32,1.06-5.57,0,0,0,0,0,0h0c-.67.35-3.27-.51-4.01-.63l-4.01-.63c-1.95-.31-5.34-.17-6.48-2.14-.13-.27-.28-.53-.45-.77-.24-.24-.53-.44-.84-.57-1.22-.59-2.67-1.27-2.94-2.59-.2-.98.28-2.08-.21-2.94-.16-.28-.4-.48-.56-.75-.35-.82-.24-1.75.28-2.47,1.71-2.99,5.25-4.44,8.64-5.01s6.92-.49,10.22-1.46c2.03-.78,4.11-1.42,6.23-1.91,1.19-.16,2.67-.28,3.1-1.34.25-.63,0-1.34.25-2,.11-.27.28-.51.39-.77.28-.86-.19-1.78-1.04-2.06h0s-.29-.07-.29-.07c.28-.73.51-1.68-.08-2.2-.41-.31-.95-.4-1.44-.23-1.34.58-2.56,1.39-3.62,2.39-4.01,2.6-9.3,1.98-12.6-1.48-.54-.47-.92-1.09-1.1-1.78-.1-1.2.57-2.33,1.67-2.83,1.07-.47,2.24-.7,3.41-.67-.44-2.86-.88-5.72-1.34-8.58-6.56,1.75-9.22-4.49-10.15-9.67-.94-5.18,2.75-7.03,7.49-7.37,14.93,5.97,24.73,20.42,24.75,36.5Z"/><path class="cls-7_money-transfer-3-18 targetColor" d="M234.17,274.33h25.26c3.64-.05,6.63,2.85,6.68,6.49,0,0,0,0,0,0v.19s-4.81,19.65-4.81,26.25c0,3.62,1.14,14.41,1.14,14.41h-31.25s1.44-11.29,1.42-15.07c0-6.44-5.16-25.61-5.16-25.61-.05-3.64,2.85-6.63,6.49-6.68h.01s.21.01.21.01Z" style="fill: rgb(104, 225, 253);"/><path class="cls-4_money-transfer-3-18" d="M232.95,315.44c1.26,0,2.5-.21,3.74-.32,1.62-.15,3.23-.12,4.86-.11l25.81.32c.97-.05,1.94.08,2.86.39.93.32,1.61,1.13,1.76,2.1.12,1.24-.92,2.26-1.91,3.02-4.55,3.51-9.9,5.84-15.56,6.81-8.71,1.48-17.65-.36-26.17-2.67-1.38-.28-2.68-.84-3.83-1.64-1.03-1.03-1.97-2.14-2.81-3.33-.82-.75-1.51-1.61-2.07-2.56-2.34-5.52,11.32-1.99,13.32-2Z"/><path class="cls-6_money-transfer-3-18" d="M250.69,278.02c-.2,1.55-1.59,2.66-3.14,2.51-3.1-.15-3.31-2.51-3.31-2.51v-12.3h6.45v12.3Z"/><path class="cls-1_money-transfer-3-18" d="M244.24,271.8s4.01,6.31,6.45,3.27v-4.92l-6.45,1.64Z"/><path class="cls-6_money-transfer-3-18" d="M241.51,268.67c1.62,5.01,9.66,5.16,12.36,1.18,1.43-2.41,1.88-5.28,1.27-8.02-.43-2.71-1.26-5.35-2.46-7.82-.83-1.55-1.67-2.93-3.54-3.15-2.14-.16-4.29.31-6.17,1.34-1.79.97-3.21,2.51-4.01,4.38-.77,1.87-.87,3.95-.28,5.89.32.97.73,1.91,1.22,2.81.62,1.09,1.16,2.22,1.62,3.39Z"/><path class="cls-4_money-transfer-3-18" d="M243.93,337.78c-.89.7-1.89,1.25-2.95,1.64-2.26.95-6.68,2.67-6.08,4.68.91,2.67,4.01,2.43,6.16,1.8,3.27-1.12,6.39-2.66,9.27-4.57l-6.4-3.55Z"/><path class="cls-4_money-transfer-3-18" d="M249.41,330.98c7.68-5.61,11.69-9.75,20.32-15,2.04-1.24,3.46-1.62,7.01-.21,3.03,1.19,2.67,6.4,1.06,8.58-4.97,6.52-24.05,15.52-27.95,16.89-1.67.59-7.56-4.37-5.17-6.75,1.49-1.28,3.07-2.45,4.73-3.5Z"/><path class="cls-4_money-transfer-3-18" d="M245.86,341.78c1.18,1.53,2.52,2.93,4.01,4.17,2.67,2,4.4,2.67,6.51,1.7,3.07-1.43.25-4.44-2.12-6.83-1.81-1.89-3.85-3.57-6.05-4.98l-2.34,5.94Z"/><path class="cls-6_money-transfer-3-18" d="M246.26,334.41l3.27,2.67c.68.56,1.26,1.24,1.71,1.99,1.07,1.99-2.67,6.05-5.01,3.66s-4.54-4.94-4.54-4.94l4.57-3.38Z"/><path class="cls-4_money-transfer-3-18" d="M236.48,338.68c-8.92-4.49-14.4-6.12-20.13-14.2-1.43-2.09-1.96-4.66-1.48-7.15.69-2.07,3.71-3.31,7.28-2.46,2.99.71,23.04,16.42,26.17,19.38,1.34,1.34-2.75,7.65-6.13,6.56-1.96-.54-3.87-1.25-5.7-2.14Z"/><path class="cls-4_money-transfer-3-18" d="M254.85,253.49c-.35.83-.86,1.58-1.5,2.22-1.31,1.27-2.99,2.09-4.8,2.34-2.67.23-5.36.14-8.02-.27-.13.87-.73,1.59-1.56,1.87.4,1.85.94,3.67,1.6,5.44.64,1.75,1.58,3.35,2.28,5.06-2.19-1.51-3.86-4.09-5.45-6.17-.85-.99-1.54-2.11-2.02-3.33-.49-1.23-.36-2.63.36-3.74.36-.37.66-.8.87-1.27.08-.41.08-.82,0-1.23-.06-1.97.78-3.86,2.27-5.14,1.49-1.27,3.24-2.18,5.13-2.67,1.62-.56,3.34-.75,5.04-.55,2.81.71,5.05,2.82,5.92,5.58.14.62.09,1.26-.13,1.86Z"/><path class="cls-6_money-transfer-3-18" d="M239.78,265.37c-.58.1-1.09.43-1.42.91-.18.38-.21.81-.07,1.2.14.39.35.75.61,1.07.14.19.3.36.49.49.33.19.7.28,1.08.27h.87c.15,0,.3-.04.43-.12.14-.11.24-.25.29-.41.2-.61.2-1.27,0-1.88-.13-.57-.41-1.1-.81-1.54-.37-.35-.99-.12-1.48.01Z"/><rect class="cls-4_money-transfer-3-18" x="270.65" y="259.04" width="8.75" height="16.86" rx="1.66" ry="1.66"/><polygon class="cls-7_money-transfer-3-18 targetColor" points="236.93 275.4 217.33 256.61 209.23 235.29 202.69 236.54 210.43 261.38 232.34 291.37 236.93 275.4" style="fill: rgb(104, 225, 253);"/><path class="cls-6_money-transfer-3-18" d="M276.65,266.72c.23-1.39,1.29-2.48,2.67-2.75,1.36-.23,2.75.16,3.78,1.07.65.54,1.12,1.28,1.34,2.1.15.86.09,1.74-.16,2.58-.23,1.19-.68,2.33-1.34,3.35-1.34,1.9-4.49,2.56-5.46,0-.11-.83-.14-1.66-.09-2.5-.05-1.31-.87-2.5-.73-3.85Z"/><path class="cls-7_money-transfer-3-18 targetColor" d="M259.86,274.41c.19-1.11,1.19-.84,3.21.2,4.91,2.72,9.46,6.03,13.56,9.86.28-4.45.36-8.92.24-13.36,3.06-.2,4.82.51,7.71,1.56.27,6.4-.35,12.81-1.83,19.04-.56,2.16-1.34,4.64-3.5,5.34-2.67.9-5.06-1.44-7.4-2.91-2.12-1.34-5.6-1.42-7.29-3.23-1.34-1.34-1.48-4.01-1.98-5.72-.83-2.89-1.94-5.81-2.52-8.75-.17-.66-.23-1.35-.19-2.03Z" style="fill: rgb(104, 225, 253);"/></g><g id="phone_2_money-transfer-3-18"><path class="cls-7_money-transfer-3-18 targetColor" d="M452.65,140.16l-30.38,193.11c-1.47,9.32-10.21,15.68-19.53,14.21l-83.57-13.16c-9.32-1.45-15.7-10.17-14.25-19.49,0,0,0,0,0,0h0l30.39-193.13c1.46-9.31,10.19-15.68,19.5-14.23h0l83.57,13.15c9.31,1.44,15.69,10.14,14.27,19.45v.09Z" style="fill: rgb(104, 225, 253);"/><rect class="cls-4_money-transfer-3-18" x="267.09" y="170.25" width="223.47" height="114.07" rx="16.51" ry="16.51" transform="translate(95.42 566.19) rotate(-81.06)"/><path class="cls-5_money-transfer-3-18" d="M446.46,143.62l-28.67,182.14c-1.44,8.58-9.57,14.38-18.15,12.94l-75.01-11.81c-2.74-.42-5.33-1.55-7.51-3.27-4.45-3.45-6.68-9.05-5.82-14.61l28.67-182.14c1.45-8.59,9.59-14.38,18.18-12.93l12.7,1.99-.36,2.28c-.4,3.02,1.05,5.99,3.67,7.53.86.5,1.81.84,2.79,1l34.85,5.48c4.13.64,8.02-2.14,8.74-6.27l.33-2.16,12.3,1.94c4.04.62,7.68,2.76,10.19,5.98,2.63,3.37,3.75,7.68,3.09,11.9Z"/><circle class="cls-2_money-transfer-3-18 targetColor" cx="380.73" cy="216.49" r="25.13" style="fill: rgb(104, 225, 253);"/><path class="cls-7_money-transfer-3-18 targetColor" d="M376.51,234.64l.68-4.53c-2.42-.35-4.69-1.37-6.56-2.95l1.5-2.85c1.74,1.5,3.87,2.48,6.15,2.81,3.19.48,5.6-1.06,5.97-3.61s-1.16-4.23-4.29-6.07c-4.31-2.46-6.84-4.93-6.25-8.82.59-3.89,3.58-6.15,7.8-6.23l.68-4.52,2.78.43-.65,4.33c2.04.32,3.96,1.15,5.6,2.4l-1.54,2.85c-1.56-1.26-3.43-2.07-5.41-2.34-3.45-.52-5.05,1.34-5.34,3.15-.35,2.32,1.15,3.74,4.8,5.92,4.34,2.54,6.32,5.2,5.76,9.19-.53,3.53-3.46,6.49-8.18,6.59l-.69,4.64-2.79-.4Z" style="fill: rgb(104, 225, 253);"/><rect class="cls-7_money-transfer-3-18 targetColor" x="352.31" y="243.62" width="4.88" height="35.86" transform="translate(44.84 574.94) rotate(-81.72)" style="fill: rgb(104, 225, 253);"/><rect class="cls-7_money-transfer-3-18 targetColor" x="389.04" y="251.77" width="4.88" height="30.28" transform="translate(70.97 615.87) rotate(-81.72)" style="fill: rgb(104, 225, 253);"/><rect class="cls-7_money-transfer-3-18 targetColor" x="346.54" y="257.31" width="4.88" height="27.11" transform="translate(30.68 577.2) rotate(-81.72)" style="fill: rgb(104, 225, 253);"/><rect class="cls-7_money-transfer-3-18 targetColor" x="372.51" y="265.16" width="4.88" height="18.96" transform="translate(49.17 606.13) rotate(-81.72)" style="fill: rgb(104, 225, 253);"/><rect class="cls-7_money-transfer-3-18 targetColor" x="394.8" y="270.02" width="4.88" height="15.75" transform="translate(65.04 630.97) rotate(-81.72)" style="fill: rgb(104, 225, 253);"/><rect class="cls-7_money-transfer-3-18 targetColor" x="350.58" y="262.54" width="4.88" height="38.18" transform="translate(23.49 590.42) rotate(-81.72)" style="fill: rgb(104, 225, 253);"/><rect class="cls-7_money-transfer-3-18 targetColor" x="388.52" y="271.36" width="4.88" height="28.07" transform="translate(53.63 632.53) rotate(-81.95)" style="fill: rgb(104, 225, 253);"/><rect class="cls-7_money-transfer-3-18 targetColor" x="364.97" y="258.78" width="4.88" height="70.19" transform="translate(23.69 615.12) rotate(-81.72)" style="fill: rgb(104, 225, 253);"/></g><g id="phone_1_money-transfer-3-18"><path class="cls-7_money-transfer-3-18 targetColor" d="M163.78,117.65l36.59,187.55c1.76,9.05-4.14,17.82-13.19,19.58l-81.18,15.83c-9.04,1.78-17.82-4.09-19.61-13.13h0l-36.59-187.59c-1.77-9.04,4.13-17.81,13.17-19.58h0l81.17-15.84c9.05-1.8,17.84,4.07,19.64,13.12,0,0,0,0,0,0h0v.07Z" style="fill: rgb(104, 225, 253);"/><rect class="cls-4_money-transfer-3-18" x="69.3" y="113.12" width="111.51" height="218.45" rx="16.14" ry="16.14" transform="translate(-40.26 28.06) rotate(-11.04)"/><path class="cls-5_money-transfer-3-18" d="M159.24,122.91l34.52,176.94c1.54,8.37-3.99,16.41-12.36,17.95l-72.86,14.21c-2.67.53-5.43.36-8.02-.51-5.23-1.69-9.14-6.08-10.22-11.48l-34.51-176.95c-1.53-8.38,4.01-16.41,12.38-17.95l12.3-2.43.47,2.24c.63,2.91,2.95,5.15,5.88,5.69.96.19,1.94.19,2.9,0l33.83-6.6c4.01-.79,6.65-4.65,5.93-8.67l-.44-2.12,12.02-2.32c3.92-.78,7.98-.03,11.37,2.1,3.54,2.22,6,5.8,6.8,9.9Z"/><circle class="cls-2_money-transfer-3-18 targetColor" cx="125.05" cy="214.43" r="25.13" style="fill: rgb(104, 225, 253);"/><path class="cls-7_money-transfer-3-18 targetColor" d="M127.16,232.95l-.87-4.49c-2.4.48-4.89.28-7.17-.59l.45-3.18c2.13.83,4.44,1.03,6.68.59,3.18-.61,4.93-2.87,4.42-5.34s-2.51-3.61-6.07-4.29c-4.89-.87-8.1-2.35-8.84-6.2s1.34-7,5.26-8.5l-.87-4.48,2.75-.53.84,4.3c2.03-.38,4.12-.24,6.08.4l-.49,3.19c-1.89-.66-3.93-.8-5.89-.4-3.41.67-4.29,2.99-3.93,4.76.45,2.31,2.34,3.14,6.49,4.01,4.96.94,7.71,2.78,8.51,6.68.68,3.5-1.1,7.27-5.5,8.94l.9,4.6-2.75.53Z" style="fill: rgb(104, 225, 253);"/><rect class="cls-7_money-transfer-3-18 targetColor" x="97.7" y="268.8" width="82.16" height="23.45" transform="translate(-52.49 32.8) rotate(-11.35)" style="fill: rgb(104, 225, 253);"/></g><g id="transfer_money-transfer-3-18"><path class="cls-7_money-transfer-3-18 targetColor" d="M289.35,208.59h-6.68c-1.11,0-2-.9-2-2s.9-2,2-2h6.68c1.11,0,2,.9,2,2s-.9,2-2,2h0ZM275.99,208.59h-6.68c-1.11,0-2-.9-2-2s.9-2,2-2h6.68c1.11,0,2,.9,2,2s-.9,2-2,2ZM262.63,208.59h-6.68c-1.11,0-2-.9-2-2s.9-2,2-2h6.68c1.11,0,2,.9,2,2s-.9,2-2,2ZM249.28,208.59h-6.68c-1.11,0-2-.9-2-2s.9-2,2-2h6.68c1.11,0,2,.9,2,2s-.9,2-2,2ZM235.92,208.59h-6.68c-1.11,0-2-.9-2-2s.9-2,2-2h6.68c1.11,0,2,.9,2,2s-.9,2-2,2ZM222.56,208.59h-6.68c-1.11,0-2-.9-2-2s.9-2,2-2h6.68c1.11,0,2,.9,2,2s-.9,2-2,2Z" style="fill: rgb(104, 225, 253);"/><path class="cls-7_money-transfer-3-18 targetColor" d="M210.03,216.49c-.49.02-.97-.16-1.34-.49l-9.03-7.9c-.83-.74-.9-2-.16-2.83,0,0,0-.01.01-.02.05-.05.09-.1.15-.15l9.03-8.27c.9-.64,2.15-.44,2.8.46.54.76.49,1.79-.12,2.49l-7.37,6.76,7.33,6.43c.83.72.92,1.97.21,2.81h0c-.37.45-.93.71-1.51.71Z" style="fill: rgb(104, 225, 253);"/><path class="cls-7_money-transfer-3-18 targetColor" d="M295.69,216.49c-.58,0-1.13-.24-1.51-.68-.72-.84-.64-2.1.19-2.83l7.35-6.43-7.37-6.76c-.73-.83-.65-2.1.18-2.83.7-.62,1.73-.67,2.49-.12l9.03,8.27c.42.39.65.93.65,1.5-.01.57-.26,1.11-.68,1.5l-9.03,7.9c-.36.31-.82.49-1.3.49Z" style="fill: rgb(104, 225, 253);"/></g></svg>